<?xml version="1.0" encoding="UTF-8" standalone="no"?>
<!-- Open five-petal blossom extracted from 13_feb_1.svg -->
<svg xmlns="http://www.w3.org/2000/svg" version="1.1" id="06_open_blossom" width="536.6907" height="998.0666" viewBox="721.2866 1386.9467 536.6907 998.0666">
  <title>Open five-petal blossom</title>
  <g id="06_open_blossom-group" transform="matrix(0.13333333,0,0,-0.13333333,0,2666.6667)">
    <path id="path16" d="m 9084.66,6642.3 -3,-10.9 c -11.12,-40.8 -8.25,-78.9 -5.22,-119.1 1.14,-15.1 2.32,-30.7 2.67,-46.3 0.98,-43.9 -10.58,-88 -34.35,-131.4 -39.12,-71.3 -103.88,-135.4 -192.52,-190.5 -81.25,-50.4 -168.38,-78.1 -258.97,-82.2 -99.46,-4.2 -199.06,13.9 -288.22,53.1 -48.3,21.3 -82.42,44.6 -110.63,75.7 -5.78,6.3 -11.45,12.9 -17.16,19.5 -22.01,25.5 -44.76,51.8 -75.05,68.7 -36.99,20.7 -78.6,18.6 -118.84,16.7 l -8.5,-0.4 c -52.92,-2.4 -91.17,4.9 -127.99,24.5 -59.68,31.6 -106.39,92 -135.05,174.5 -23.43,67.5 -37.77,142 -40.37,209.9 -1.76,46.3 4.12,93.7 9.8,139.6 l 1.94,15.8 c 4.25,34.8 8.88,69.5 13.51,104.2 4.67,35.1 9.34,70.1 13.61,105.2 8.04,66 15.6,136.8 16.45,206.7 0.65,53.7 -0.51,109.8 -21.94,155.2 -4.09,8.6 -9.09,16.4 -14.73,23.2 14.84,1.7 26.42,14.2 26.42,29.4 0,16.5 -13.33,29.8 -29.77,29.8 -9.6,0 -18.04,-4.6 -23.48,-11.7 -1.9,4 -3.96,7.9 -6.29,11.7 10.05,8.5 20.7,16.3 31.71,23.7 31.11,-1.4 62.83,-7.4 93.89,-13.4 l 14.46,-2.8 c 0.28,0 0.53,-0.1 0.8,-0.2 -0.5,-2.6 -0.8,-5.2 -0.8,-8 0,-5.7 1.16,-11.2 3.26,-16.1 -3.02,1.1 -6.26,1.8 -9.68,1.8 -15.08,0 -27.3,-12.2 -27.3,-27.3 0,-15 12.22,-27.3 27.3,-27.3 15.07,0 27.29,12.3 27.29,27.3 0,2.1 -0.3,4.2 -0.76,6.2 6.3,-3.8 13.6,-6.2 21.5,-6.2 18.71,0 34.35,12.5 39.59,29.4 31.55,-10.2 59.82,-22.5 86.77,-37.9 2.98,-1.7 5.89,-3.5 8.84,-5.2 4.46,-7.6 12.4,-12.8 21.67,-13.4 91.32,-58.6 170.13,-139.5 240.04,-246.5 31.27,-47.9 60.18,-98.4 88.15,-147.3 7.04,-12.3 14.08,-24.6 21.16,-36.8 1.38,-2.4 3.85,-3.8 6.4,-3.8 1.21,0 2.43,0.3 3.57,0.9 l 6.06,4.3 -2.98,5.8 c -6.34,12.2 -12.65,24.4 -18.96,36.7 -54,104.9 -109.83,213.4 -190.86,302.9 -34.38,38 -76.1,73.3 -124.11,105.3 0.38,1.8 0.6,3.7 0.6,5.6 0,15.1 -12.22,27.3 -27.3,27.3 -6.37,0 -12.15,-2.3 -16.79,-5.9 -33.35,18.9 -69.32,33.9 -108.7,45.2 -7.6,10 -19.55,16.7 -33.15,16.7 -6.59,0 -12.75,-1.7 -18.29,-4.4 -3.08,0.5 -6.07,1.2 -9.18,1.8 l -14.14,2.6 c -15.4,2.8 -31.14,5.6 -46.99,7.9 106.94,27.9 217.4,56.4 327.35,53.3 0.08,0 0.15,0 0.23,0 0.07,0 0.12,0 0.19,0 0.46,0 0.92,0 1.38,0 121.89,-3.7 241.32,-57.4 365.13,-164.1 94.06,-81 169.41,-180 224.55,-257.1 81.1,-113.4 149.68,-229.8 203.85,-345.9 48.07,-103 103.52,-239.1 105.69,-378.7 0.06,-4.2 3.45,-7.6 7.7,-7.7 0.05,0 0.1,0 0.15,0 4.22,0 7.67,3.3 7.89,7.5 5.87,118.6 -37.4,237.4 -80.51,338 -51.07,119.1 -119.49,241.2 -203.35,363 -82.73,120.1 -157.02,208.8 -233.8,279.3 -115.26,105.7 -232.47,167.3 -348.35,183 -6.89,0.9 -13.77,1.7 -20.65,2.3 1.72,4 2.7,8.3 2.7,12.9 0,11.2 -5.59,20.9 -14.1,26.8 3,0.5 6.01,1 9.01,1.5 158.98,23.7 334.36,2.8 493.79,-58.8 90.2,-34.8 165.59,-82.5 224.06,-141.6 62.58,-63.2 115.65,-148.2 162.23,-259.9 34.95,-83.8 62.66,-176.3 89.85,-300.1 2.29,-10.4 4.71,-20.8 7.15,-31.4 9.64,-41.6 19.61,-84.7 21.52,-126.8 1.79,-39.6 -8.34,-76.4 -19.05,-115.3 z M 6482.75,8732.7 c -0.01,0 -0.01,0 -0.02,0 h -0.02 c 0.01,0 0.02,0 0.04,0 z m 1163.79,-1047 c -11.36,0 -21.21,-6.1 -26.7,-15.1 -6.38,20.9 -13.04,41.7 -19.73,62.3 l -0.97,2.9 c -7.03,21.6 -14.35,42.2 -21.82,62.3 -0.31,9.5 -2.98,18.4 -7.47,26.2 4.8,9.9 7.57,21 7.57,32.8 0,35.4 -24.31,65 -57.11,73.3 -44.91,89.4 -101.47,172.8 -168.66,248.3 -154.29,173.4 -353.49,299.7 -528,400.4 -60.41,34.9 -121.39,66.8 -181.23,94.9 -57.92,27.2 -107.28,47.9 -159.84,60.9 -3.96,1 -7.94,-1.1 -9.18,-5 -1.24,-3.9 0.8,-8.1 4.63,-9.6 187.79,-71.8 381,-178.3 590.63,-325.4 196.61,-138 335.8,-289.3 425.51,-462.5 -38.29,-3.7 -68.21,-36 -68.21,-75.3 0,-29 16.27,-54.1 40.15,-66.9 3.01,-27.9 26.69,-49.7 55.49,-49.7 18.45,0 34.76,8.9 44.92,22.7 1.62,-4.6 3.25,-9.1 4.85,-13.8 10.91,-32 21.11,-65 31.19,-100.8 3.93,-14 7.48,-28.1 11.03,-42.3 4.78,-19 9.88,-38.5 15.75,-57.7 -0.29,-0.4 -0.44,-0.8 -0.66,-1.2 -11.81,11 -25.24,20.4 -39.36,28.1 11.31,7.8 18.75,20.9 18.75,35.6 0,23.9 -19.36,43.3 -43.24,43.3 -18.31,0 -33.88,-11.4 -40.18,-27.5 -3.94,0.7 -7.99,1.1 -12.15,1.1 -10.28,0 -19.96,-2.4 -28.61,-6.7 -4.15,4.4 -8.32,8.8 -12.46,13.2 -16.23,17.4 -32.69,35 -49.53,52.3 -2.54,13.2 -12.93,23.7 -26.17,26.2 -27.8,27.2 -56.99,53.1 -88.63,75.9 -61.16,44 -130.44,72.7 -196.01,93 -26.13,16.9 -50.56,38.2 -74.47,59.2 -14.81,13 -28.8,25.3 -43.23,36.7 -65.99,51.9 -143.34,91.1 -218.14,129 l -2.65,1.3 c -70.35,35.6 -154.64,75.4 -246.36,99.7 -89.94,23.8 -183.29,37.5 -265.64,49.6 l -34.35,4.9 c -57.48,8.3 -116.9,16.7 -174.03,30.5 -47.83,11.4 -102.51,27.8 -145.32,61.5 -43.18,34.1 -58.12,83.3 -42.09,138.6 7.57,26.1 21.07,48.7 35.37,72.6 5.04,8.4 10.09,16.9 14.86,25.5 13.47,24.3 21.55,50.1 29.36,75 3.41,10.9 6.83,21.8 10.72,32.7 50.26,141.1 166.71,247 319.5,290.4 83.14,23.6 164.88,32.3 236.36,25.2 44.76,-4.5 88.38,-17.5 126.13,-37.7 13.49,-7.1 26.65,-15.7 39.38,-24 17.55,-11.5 35.69,-23.3 55.44,-32 48.08,-21.4 96.63,-14.4 143.58,-7.8 29.67,4.3 60.35,8.6 90.46,5.7 45.74,-4.4 91.44,-20.4 126.15,-33.9 45.94,-17.9 85.38,-36.2 120.57,-55.8 142.52,-79.4 227.48,-221.5 285.57,-336.5 75.48,-149.5 104.04,-317.6 123.67,-477.1 0.92,-7.5 1.95,-15.1 2.94,-22.6 -4.69,2.7 -10.09,4.4 -15.94,4.4 -17.4,0 -31.51,-14.1 -31.51,-31.5 0,-17.4 14.11,-31.5 31.51,-31.5 8.88,0 16.86,3.7 22.59,9.6 0.45,-3.2 0.89,-6.4 1.34,-9.6 11.52,-82.1 23.33,-166.4 21.81,-249.5 -2.61,0.7 -5.3,1.2 -8.13,1.2 z m -14.08,-59.2 c 4.25,-2.1 8.99,-3.4 14.08,-3.4 1.51,0 2.96,0.2 4.41,0.4 -0.01,-0.1 -0.02,-0.3 -0.04,-0.4 -1.42,-13.1 -3.59,-28.4 -7.01,-43.9 -3.28,15.8 -7.23,31.6 -11.44,47.3 z m -309.52,-346.2 c -78.86,-96.9 -130.45,-212.8 -180.36,-325 l -12.29,-27.6 c -52.67,-118.2 -107.14,-240.4 -192.22,-339 -45.54,-52.8 -108.86,-114.1 -195.04,-119.9 -77.1,-5.2 -160.78,24.1 -248.61,87.1 -35.01,25.1 -74.31,55.1 -97.4,93.5 -4.25,7.1 -8.28,14.3 -12.33,21.6 -15.7,28.3 -31.94,57.6 -61.35,75.9 -7.9,5 -16.48,8 -24.77,11 -4.37,1.5 -8.73,3.1 -12.93,4.9 -13.66,5.9 -27.12,12.4 -40.57,18.8 -8.37,4.1 -16.73,8.1 -25.13,12 -34.31,15.8 -78.4,38.5 -115.2,73.5 -40.53,38.6 -77.8,80.7 -110.77,125.4 -15.3,20.7 -29.8,42.5 -43.12,64.8 -10.66,17.9 -17.15,36.8 -24.03,56.7 l -3.14,9.1 c -5.83,16.7 -13.08,34.2 -26.5,49.6 -8.69,9.9 -19.06,17.7 -29.09,25.3 -7.68,5.8 -14.92,11.2 -21.51,17.6 -36.99,35.7 -64.61,75.1 -79.86,113.9 -27.6,70.3 -16.81,150.7 32.97,245.8 35.58,68 84.2,125.8 144.52,171.7 104.99,80 247.93,131.8 424.86,154 138.57,17.4 289.02,15.7 459.97,-5.3 100.56,-12.4 217.05,-28.8 327.13,-67.1 49.91,-17.3 97.43,-41.6 143.51,-72.8 -6.61,-5.6 -10.88,-13.9 -10.88,-23.2 0,-17 13.74,-30.7 30.69,-30.7 12.65,0 23.49,7.6 28.19,18.6 6.36,-5.2 12.7,-10.4 19.01,-15.9 -6.46,-6 -10.55,-14.6 -10.55,-24.1 0,-18.3 14.86,-33.2 33.2,-33.2 10.51,0 19.76,5 25.85,12.6 10.83,-10.6 21.67,-21.2 32.4,-31.9 -46.25,14.7 -93.35,26.5 -139.33,38.1 -27.45,6.9 -55.83,14 -83.55,21.6 -18.51,5 -37,10.2 -55.48,15.4 -73.88,20.7 -150.26,42 -227.27,56.3 -76.96,14.2 -159.04,20.9 -252.02,20.5 -87.24,-0.4 -158.43,-7.1 -224.02,-21.1 -92.44,-19.7 -163.61,-52.9 -217.57,-101.5 -3.46,-3.1 -3.73,-8.3 -0.62,-11.8 3.21,-3.6 8.54,-3.9 12.11,-0.8 v 0 c 112.66,99.8 280.79,113.4 414.68,114.1 90.7,0.3 170.02,-5.5 242.39,-18.3 89.98,-15.9 178.34,-41.2 268.48,-67.9 12.36,-3.7 24.7,-7.4 37.04,-11.1 1.07,-0.3 2.17,-0.6 3.24,-0.9 -98.31,10.5 -199.5,10.2 -300.99,-1.2 -227.96,-25.5 -415.16,-94.6 -556.43,-205.5 -42.43,-33.3 -79.45,-69.9 -110.05,-108.7 -37.47,-47.6 -60.9,-87.8 -73.74,-126.7 -1.56,-4.7 0.67,-9.7 5.31,-11.7 1.34,-0.6 2.74,-0.9 4.12,-0.9 3.4,0 6.63,1.7 8.4,4.8 l 5.08,8.9 c 20.58,35.9 40.02,69.8 65.98,101.3 26.44,31.9 57.56,62.2 92.48,89.9 67.02,53.2 149.59,98.5 245.4,134.5 176.07,66.4 378.96,95.1 586.72,82.9 61.76,-3.7 120.47,-10.9 175.91,-21.5 -9.57,-1.3 -19.32,-2.8 -29.47,-4.9 -51.52,-10.4 -105.97,-29.6 -166.47,-58.7 -103.6,-49.8 -221.01,-106.3 -319.55,-181.6 -58.1,-44.4 -102.37,-90.7 -135.34,-141.4 -2.45,-3.8 -1.44,-8.7 2.31,-11.3 1.47,-0.9 3.11,-1.4 4.74,-1.4 2.65,0 5.22,1.3 6.86,3.6 68.15,98.7 174.84,165.8 270.22,218.5 47.39,26.2 96.81,50.6 144.6,74.3 l 4.69,2.3 c 30.95,15.3 66.22,31.8 104.08,45.9 2.66,-2.8 6.4,-4.6 10.58,-4.6 7.64,0 13.84,5.9 14.45,13.4 8,2.6 16.07,5.1 24.26,7.4 55.94,15.7 101.8,20.4 140.86,14.7 -1.99,-6.2 -3.09,-12.9 -3.09,-19.8 0,-35.8 29.06,-64.9 64.91,-64.9 33.45,0 60.97,25.3 64.51,57.8 33.92,-18.6 60.38,-50.4 74.68,-83.9 -131.55,-22.9 -245.08,-89 -328.75,-191.8 z m 356,981.9 0.64,10.4 c 3.41,54.6 7.5,110.2 11.46,163.9 6.16,83.8 12.54,170.4 16.48,255.8 2.41,52.2 4.2,108.1 1.03,163.6 l -1.06,17.6 c -2.9,47.1 -5.91,95.7 5.55,141.2 14.15,56.2 56.02,89.1 117.87,92.7 14.17,0.8 27.91,-1.2 42.49,-3.4 14.58,-2.2 29.63,-4.5 45.01,-3.5 7.02,0.4 13.82,1.7 20.49,3.5 3.1,-0.7 6.05,-1.5 9.18,-2.2 67.3,-15.1 136.88,-30.7 159.93,-100.7 29.58,-89.8 -33.65,-172.3 -89.42,-245 -7.87,-10.3 -15.55,-20.3 -22.75,-30 -16.08,-21.8 -32.58,-43.3 -49.08,-64.8 -52.37,-68.3 -106.53,-138.9 -145.78,-218 -35.53,-71.7 -65.01,-150.3 -88.13,-234.6 1.76,14.2 3.54,28.4 5.25,42.6 14.38,119.1 31.7,246.9 60.8,374.8 15.36,67.4 32.73,135.7 49.52,201.7 l 0.79,3.2 c 1.02,4 -1.34,8.1 -5.38,9.2 -4.03,1.1 -8.16,-1.2 -9.38,-5.2 -43.85,-142.6 -70.99,-253.8 -87.96,-360.7 -15.11,-95.2 -26.76,-192.3 -38.03,-286.3 -3.38,-28.1 -6.74,-56.2 -10.21,-84.3 -2.72,-22.1 -4.48,-44.7 -6.17,-66.6 -0.69,-8.9 -1.41,-17.8 -2.17,-26.8 -1.3,84.2 3.85,169 9.03,251.9 z m 205.5,-644.5 c -18,-3.8 -35.95,-7.9 -53.83,-12.3 8.5,3.1 17.01,6.2 25.48,9.1 8.24,2.9 16.51,5.6 24.79,8.3 1.03,-1.8 2.21,-3.5 3.56,-5.1 z m -5.89,56.4 -2.08,-1.4 c -11.95,-8.1 -24.1,-16.3 -36.36,-24.3 -6.42,-2.3 -12.79,-4.6 -19.04,-7 35.46,29.4 68.08,60.9 97.92,92 7.05,-8.5 17.53,-14 29.4,-14 0.85,0 1.63,0.2 2.46,0.3 -25.65,-15.2 -49.68,-30.3 -72.3,-45.6 z m 168.41,-36.7 c -35.27,-0.4 -70.45,-3.8 -105.46,-9.2 1.2,3.4 1.99,7.1 1.99,11 0,0.8 -0.19,1.6 -0.26,2.5 35.85,9.9 71.92,18.3 108.06,25.2 -3.87,-5.3 -6.22,-11.9 -6.22,-19 0,-3.7 0.75,-7.2 1.89,-10.5 z m -41.37,1500.6 5.15,3.4 c 7.68,5 15.3,10 22.94,15.1 26.39,17.6 53.7,35.7 82.55,49.7 30.65,14.9 65.79,26.1 104.46,33.2 64.21,11.8 133.06,9.2 199.13,-7.5 132.14,-33.3 250.8,-121.1 317.41,-234.9 42.75,-73 63.92,-157.8 80.43,-238.6 3.78,-18.5 7.01,-37.9 10.14,-56.7 9.79,-58.8 19.92,-119.5 49.15,-172.2 14.8,-26.6 33.01,-51.4 50.62,-75.4 19.32,-26.3 39.29,-53.5 54.45,-82.9 28.08,-54.4 36.43,-122.5 24.15,-197 -13.18,-79.7 -91.57,-348 -547.42,-449.9 -21.8,-4.8 -43.69,-8.7 -65.48,-12 -62.25,9.4 -126.49,13.5 -191.5,11.6 -70.05,-2.1 -146.17,-14.3 -239.56,-38.3 -16.58,-4.3 -32.47,-8.8 -48.07,-13.4 -1.38,0.2 -2.73,0.5 -4.16,0.5 -1.16,0 -2.27,-0.3 -3.4,-0.4 24.34,16.4 49.3,32.9 75.01,47.1 82.79,46.1 145.57,83.1 203.58,120.1 149.01,95.1 269.95,191.6 369.75,294.9 68.47,71 122.91,140.4 166.42,212.3 2.71,4.4 1.45,9.9 -2.93,12.7 -4.46,2.9 -10.32,1.8 -13.3,-2.6 -91.53,-133.2 -199.3,-251.3 -320.31,-351 -87.95,-72.4 -186.59,-141.1 -299.09,-208.3 0.05,0.6 0.18,1.2 0.18,1.8 0,11.2 -9.14,20.4 -20.41,20.4 -11.27,0 -20.41,-9.2 -20.41,-20.4 0,-8.4 5.02,-15.5 12.2,-18.7 -20.54,-12 -41.41,-23.9 -62.88,-35.8 -4.76,-2.7 -9.24,-5.3 -13.88,-7.9 3.96,6 6.3,13.2 6.3,21 0,13 -6.56,24.5 -16.53,31.5 3.05,3.5 6.16,7 9.13,10.4 114.38,131.4 205.8,270.6 271.75,413.6 38.61,83.8 61.25,153.3 71.22,219 0.8,5.2 -2.75,10.1 -8.1,10.9 -4.94,0.8 -9.44,-2.4 -10.27,-7.4 -24.78,-150.6 -103.74,-289.1 -169.76,-393 -57.68,-90.7 -120.22,-173.2 -186.89,-246.7 -20.72,-0.6 -37.38,-17.5 -37.38,-38.3 0,-0.5 0.12,-0.9 0.13,-1.4 -28.17,-28.9 -57.01,-56.4 -86.5,-82.1 -32.78,-28.7 -62.81,-52.2 -91.65,-71.8 -5.03,-2.5 -10.13,-5 -15.04,-7.5 -15.44,-8.2 -29.51,-16.5 -42.69,-25 11.94,24.9 24.65,49.4 37.59,73.7 4.02,-1.4 8.26,-2.3 12.76,-2.3 21.4,0 38.74,17.3 38.74,38.7 0,12.5 -6,23.5 -15.17,30.6 29.92,54.7 60.46,111.1 85.41,169.4 5.91,13.8 12.02,27.6 18.15,41.4 20.36,46 41.41,93.6 55.46,142.6 8.58,29.9 13.09,60.9 17.46,90.9 5.4,37.1 10.98,75.5 24.32,111.2 1.56,4.1 -0.48,8.6 -4.63,10.2 -4.23,1.5 -8.98,-0.6 -10.58,-4.8 -13.9,-36.6 -19.69,-75.4 -25.28,-112.8 -4.13,-27.7 -8.41,-56.4 -15.95,-83.7 -14.74,-53.4 -38.36,-105.7 -61.2,-156.2 -5.6,-12.4 -11.19,-24.8 -16.62,-37.1 -24.76,-56.1 -55.09,-110.6 -84.87,-163.4 -1.73,0.2 -3.45,0.5 -5.24,0.5 -21.4,0 -38.75,-17.4 -38.75,-38.8 0,-9.3 3.45,-17.8 8.97,-24.5 -4.5,-8.2 -9.03,-16.3 -13.47,-24.6 4.2,29.5 4.7,59.6 4.5,87.9 -0.22,31.1 -1.94,62.3 -4.39,93.4 8.58,-9.8 21.03,-16.1 35.08,-16.1 25.85,0 46.8,20.9 46.8,46.8 0,25.8 -20.95,46.8 -46.8,46.8 -12.18,0 -23.17,-4.8 -31.5,-12.4 20.78,225 67.65,404.7 144.94,557.3 37.77,74.6 88.33,143 137.22,209.2 20.18,27.4 41.04,55.6 60.75,84 7.26,10.4 14.97,21 22.78,31.7 51.18,70.4 109.19,150.1 81.03,243.2 -23.75,78.5 -90.78,99.4 -159.91,114.5 11.86,6.4 23.13,13.7 33.76,20.6 z M 7045.48,5665.5 c 67.71,106.1 158.16,210.2 284.67,327.6 42.95,39.9 87.68,79.8 135.62,120.9 -2.36,-4.4 -4.7,-8.7 -7.03,-13 -29.01,-53.6 -59.01,-108.9 -98.78,-157.5 -61.56,-75.1 -114.2,-143.9 -160.93,-210.5 -45.64,-65 -93.19,-135.8 -149.67,-222.8 l -1.58,-2.4 c -46.09,-71 -93.76,-144.3 -125.53,-224 -6.13,-15.4 -11.05,-31.3 -15.35,-47.4 1.43,33.3 3.28,66.5 5.36,99.7 22.29,114 67.58,226.5 133.22,329.4 z m 445.63,456.6 c -0.38,-147.2 -39.27,-296.9 -115.88,-445.6 -66.22,-128.5 -166.94,-255.5 -316.98,-399.6 -61.48,-59 -111.41,-110.9 -155.04,-161 0.18,8.9 0.31,17.7 0.53,26.6 3.12,11.9 6.03,23.8 8.89,35.7 5.04,20.9 10.26,42.5 16.55,63 24.55,79.9 71.85,153.4 117.59,224.5 l 2.84,4.4 c 80.79,125.6 189.13,289.7 310.78,446.1 30.29,39 57.2,74.5 79.95,114.3 7.66,13.4 15,27 22.33,40.5 9.14,17 18.48,34.2 28.44,51.1 z M 6892.13,4325.8 c 0.46,0.1 0.91,0.3 1.37,0.5 0.24,-1.8 0.5,-3.5 0.75,-5.3 -0.72,1.6 -1.39,3.2 -2.12,4.8 z m 305.24,-446.2 c -9.42,224.7 33.72,450.4 124.75,652.6 15.05,33.5 31.6,67.1 47.6,99.6 32.37,65.9 65.69,133.6 89.22,204.7 147,-191.6 167.68,-453.5 166.46,-596.4 -0.97,-114.1 -19.76,-233.6 -57.45,-365.6 -18.71,-65.5 -40.68,-131.3 -61.93,-194.9 -17.99,-53.8 -36.58,-109.4 -53.15,-164.8 -34.94,-116.7 -67.22,-240.3 -74.66,-364.7 -41.44,160 -61.33,336.5 -60.66,536.5 0.69,203.4 24.64,416.9 71.19,634.5 24.04,112.4 54.12,225.1 89.4,335.2 1.97,6.1 -1.22,12.2 -7.43,14.2 -6.38,2.1 -12.97,-1.2 -14.99,-7.5 -64.78,-200.9 -111.3,-407.2 -138.26,-613.3 -30.2,-230.7 -33.65,-448.2 -10.25,-646.4 8.06,-68.1 19.45,-134.8 33.86,-199.6 -1.74,3.4 -3.46,6.7 -5.2,10.2 -3.74,7.4 -7.34,14.7 -11.04,22 -10.69,44 -22.03,88.3 -33.11,131.3 -42.77,165.8 -87,337.2 -94.35,512.4 z m -450.71,662.7 c -44.86,51.8 -91.93,103.1 -137.46,152.8 -65.33,71.3 -132.9,145 -194.95,221.1 -190.19,233.3 -337.89,510.3 -427.13,800.8 -41.18,134.1 -61.29,279.9 -60.04,434.7 30.73,-66.3 72.68,-127.2 113.64,-186.6 17.11,-24.8 34.79,-50.4 51.25,-75.9 66.94,-103.7 132.64,-219.9 206.73,-365.6 32.32,-63.6 63.62,-129 93.89,-192.3 28.66,-59.9 58.31,-121.8 88.78,-182.2 29.52,-58.4 62.28,-116.2 93.96,-172.2 38.52,-68 78.35,-138.3 112.54,-210.1 29.46,-61.8 56.08,-126.2 81.82,-188.5 20.18,-48.9 40.76,-98.7 62.98,-147.9 -24.42,36.6 -52.9,73.6 -86.01,111.9 z M 5929.8,6235.8 c 44.2,-14.6 82.38,-46.6 117.3,-79.7 38.5,-36.5 73.85,-77.5 108.03,-117.1 l 15.18,-17.5 c 23.7,-27.3 49.28,-53.3 74.02,-78.5 17,-17.2 34.59,-35.1 51.36,-53.2 51.63,-55.7 97.18,-114.8 135.4,-175.9 83.69,-133.6 135.7,-286.5 181.79,-431.6 44.37,-139.8 86.18,-292.7 127.81,-467.4 8.29,-34.9 16.13,-70.7 23.71,-105.4 10,-45.8 20.13,-92.1 31.75,-138.2 -2.34,5.8 -4.67,11.6 -7,17.3 -18.65,46.1 -37.94,93.7 -58.24,140 -39.92,91 -89.2,178.7 -136.86,263.6 -20.9,37.1 -42.51,75.6 -63.05,113.8 -40.73,75.9 -78.32,155.2 -114.67,231.8 -22.45,47.3 -45.65,96.3 -69.37,143.9 -72.77,146.3 -135.96,262.1 -198.86,364.5 -28.61,46.6 -59.81,92.2 -89.98,136.4 -12.79,18.8 -25.59,37.5 -38.24,56.3 -33.1,49.4 -68.76,106.9 -91.42,169.2 0.38,9.2 0.82,18.4 1.34,27.7 z M 9129.43,6789 c -6.37,47.7 -17.4,95.6 -28.05,141.9 l -5.12,22.3 c -14.03,61.7 -26.9,111.3 -40.52,156.1 -34.69,114.3 -77.72,210 -131.56,292.3 -53.27,81.5 -120.45,147.1 -199.71,195 -74.8,45.2 -160.35,79 -251.89,100.4 96.88,21.4 188.92,56.5 270.35,103.4 129.29,74.4 217.96,165.5 263.55,270.8 25.52,59 37.49,124 34.6,188.1 -2.93,64.9 -25.72,123.6 -73.9,190.3 l -8.15,11.2 c -38.12,52.5 -74.12,102.1 -86.99,166.9 -4.77,24 -9.14,48.1 -13.5,72.2 -12.48,69 -25.39,140.3 -48.05,208.4 -46.82,140.6 -144.67,253 -275.54,316.6 -133.81,65.1 -281.6,73 -405.54,21.7 -39.9,-16.5 -76,-40.5 -109.56,-63.6 -5.61,-3.9 -11.39,-8.1 -17.34,-12.5 -24.98,-18.2 -53.2,-38.7 -82.13,-42 -1.12,0.3 -2.29,0.5 -3.41,0.8 -2.67,0.6 -5.33,0 -7.48,-1.3 -7.3,0.3 -14.67,1.6 -22.36,2.9 -3.22,0.5 -6.43,1.1 -9.64,1.6 -18.99,2.8 -36.55,3.5 -53.71,2 -33.49,-3 -61.42,-12.3 -82.99,-27.9 -36.94,-26.6 -57.52,-71.4 -62.91,-136.9 -2.86,-34.8 -1.34,-70 0.11,-104.1 0.85,-19.7 1.73,-40.1 1.73,-60 0.02,-112.8 -7.99,-227.3 -15.75,-338.1 -1.64,-23.4 -3.29,-46.8 -4.86,-70.3 -5.87,-87.5 -9.66,-158.8 -11.94,-224.2 -0.56,-15.9 -1.12,-32.3 -1.58,-49.1 -14.59,96 -35.19,194.4 -69.46,288.9 -25.51,70.3 -61.49,142.1 -106.93,213.3 -46.14,72.3 -94.77,129.2 -148.68,173.8 -55.48,46 -122.6,82.6 -217.63,118.8 -52.33,20 -95.49,30.6 -135.83,33.4 -32.13,2.2 -63.66,-3.4 -94.13,-8.8 -10.63,-1.9 -21.27,-3.8 -31.94,-5.3 -46.65,-6.9 -82.89,-1 -117.44,19.2 -11.11,6.5 -21.87,13.4 -32.6,20.3 -21.76,14 -44.25,28.4 -69.19,38.8 -71.37,29.9 -153.82,37.1 -259.49,22.8 -116.68,-15.9 -276.73,-65.9 -376.55,-214.2 -26.87,-39.9 -45.37,-74.5 -58.23,-108.8 -5.44,-14.5 -9.8,-29.3 -14.02,-43.5 -7.4,-25 -14.41,-48.7 -26.8,-71.5 -3.04,-5.6 -6.16,-11.3 -9.29,-16.9 -29.36,-53 -59.72,-107.8 -44.78,-171 24.48,-103.6 145.69,-139.3 261.02,-160.6 52.4,-9.6 106.09,-17.4 158.01,-24.9 121.51,-17.6 247.17,-35.8 364.6,-79.3 96.35,-35.7 190.28,-86.7 261.33,-127.2 42.01,-23.9 76.73,-44.2 109.35,-70.2 11.12,-8.9 22.06,-18 33,-27.1 10.12,-8.4 20.47,-16.9 30.97,-25.3 -15.57,3.9 -30.73,7.4 -45.17,10.6 -181.86,40.1 -358.59,55.8 -525.29,46.6 -186.97,-10.4 -338.69,-47.7 -463.83,-114.2 -73.63,-39.2 -134.2,-87.2 -180.01,-142.7 -58.74,-71.2 -98.76,-154.1 -112.69,-233.5 -14.24,-81.2 8.49,-160.7 65.75,-229.9 12.13,-14.7 30.78,-36.2 52.61,-53.3 l 6.59,-5.1 c 15.09,-11.7 29.34,-22.7 37.69,-40.1 5.74,-11.9 9.37,-24.6 13.21,-38.1 2.63,-9.2 5.35,-18.8 8.79,-27.9 8.7,-23.2 21.67,-43.8 36.49,-66.5 28.19,-43.1 61.89,-85.6 103.02,-129.8 42.23,-45.3 77.28,-73.6 117.2,-94.4 36.19,-18.8 78.85,-40.1 120.79,-55.3 36.03,-13 52.53,-42.2 71.64,-75.9 l 2.92,-5.1 c 24.04,-42.3 58.37,-72.2 91.89,-98.2 39.47,-30.6 79.93,-55.3 120.28,-73.3 40.55,-18.1 93.46,-35 149.92,-35 34.22,0 69.76,6.2 104.61,22.1 66.34,30.2 118.58,92.6 160.94,149.7 36.02,48.5 69.45,104.9 105.21,177.6 23.22,47.2 44.83,96.1 65.72,143.4 33.89,76.7 68.93,156 111.69,229.7 72.97,125.8 163.54,211.7 269.45,255.8 -206.83,-293.9 -371.37,-635.6 -489.01,-1016.5 -114.42,-370.4 -181.63,-765.5 -199.75,-1174.2 -2.63,-59.1 -4.08,-118.1 -4.64,-176.8 -0.44,-0.8 -0.81,-1.5 -1.27,-2.2 l -3.46,-4.4 1.79,-1.4 c 0.13,-2.2 1.23,-4.2 2.83,-5.9 -1.51,-227.8 12.44,-452.8 41.83,-672.9 -28.04,62.3 -42.89,129.8 -57.19,195.4 -7.83,35.9 -15.18,72 -22.53,108.1 -7.94,39 -16.16,79.3 -24.91,118.9 -31.89,144.2 -71.3,314.1 -121.84,480.5 -23.04,75.9 -50.31,154.1 -81.04,232.4 -26.53,67.7 -56.66,139.8 -97.17,208.8 -36.83,62.7 -81.27,124 -132.09,182.2 -22.06,25.3 -46.03,49.3 -69.2,72.6 -21.5,21.5 -43.75,43.9 -64.28,67 -12.02,13.5 -23.89,27.2 -35.75,40.9 -32.89,37.9 -66.88,77.1 -103.9,112.5 -43.63,41.7 -96.96,85.8 -161.74,96.6 -5.96,1 -11.79,-0.4 -16.05,-3.9 -4.08,-3.3 -6.48,-8.2 -6.74,-13.8 -7.45,-158 -7.98,-327.3 38.2,-495.2 37.29,-135.7 91.92,-275.6 162.35,-416.1 70.67,-140.9 152.52,-272 243.25,-389.6 77.65,-100.6 166.11,-194.7 251.66,-285.7 24.02,-25.5 48.03,-51 71.81,-76.7 59.15,-63.9 120.3,-129.9 167.75,-204.7 29.38,-46.3 55.38,-98 77.75,-154.3 9.23,-57.2 19.39,-114.2 30.73,-170.7 53.5,-266.3 170.64,-517.2 296.22,-772.2 77.08,-156.5 156.68,-306 236.6,-444.4 64.32,-111.4 142.33,-241.6 233.25,-362.6 16.88,-22.5 34.58,-44.8 52.64,-66.4 4.73,-5.7 10.75,-8.7 17.24,-8.7 1.24,0 2.51,0.2 3.78,0.4 8.9,1.5 16.82,8.5 20.18,17.7 3.26,8.9 1.6,18.2 -4.56,25.6 -85.4,102.1 -155.94,216.8 -220.87,325.5 -57.03,95.5 -113.55,196.5 -171.25,306.1 -0.78,134.4 32.08,267.5 68.13,391.8 19.86,68.5 43.33,137.1 66.03,203.4 18.21,53.2 37.03,108.3 53.92,163 41.94,135.9 64.59,257.8 69.25,372.6 4.74,116.8 -5.64,229.7 -30.85,335.5 -31.3,131.4 -83.55,241.1 -155.38,326.1 l 0.42,1.4 -1.37,-0.3 c -2.07,2.4 -4.15,4.8 -6.25,7.2 -4.24,4.8 -10.63,6.8 -17.1,5.4 -6.91,-1.5 -12.6,-6.7 -14.49,-13.3 -23.32,-80.4 -61.45,-156.8 -98.32,-230.7 -12.62,-25.3 -25.67,-51.5 -37.95,-77.4 -47.27,-100 -82.68,-205.9 -105.25,-314.9 -23.91,-115.5 -34.48,-229.1 -31.39,-337.5 2.9,-101.7 17.55,-209.8 44.78,-330.2 17.31,-76.7 39.04,-157.3 65.56,-243.9 -50.08,103.6 -95.41,202.9 -137.1,300.7 -46.3,108.6 -90.13,215.1 -117.49,323.8 -38.03,151 -65.99,320.1 -88.01,532.2 -19.41,187.1 -28.02,381.1 -25.57,576.7 0.02,1.4 0.07,2.8 0.08,4.2 49.42,56.6 101.22,110.4 154.7,160.2 71.26,66.3 130.38,128.5 180.74,190.1 121.77,149.1 205.78,298.2 249.67,443.2 28.84,95.3 40.52,191.1 34.74,284.9 l 2.75,2.3 -2.98,1.2 c -0.09,1.3 -0.18,2.6 -0.27,4 -0.46,6.3 -4.24,11.7 -9.87,14.1 -5.66,2.3 -12.21,1.2 -17.06,-2.9 l -3.05,-2.7 -2.55,1.1 0.16,-3.1 -12.32,-10.5 c -219.35,-187.8 -446.17,-381.9 -546.93,-660.1 -2.23,-6.1 -4.27,-12.5 -6.36,-18.7 24.15,260.5 68.21,516.6 132.05,765 101.54,395.2 249.75,751.9 440.5,1060.1 23.71,38.3 49.02,77.2 75.22,115.6 0.02,0.1 0.02,0.1 0.03,0.1 27.61,9.2 57.46,16.5 89.11,21.8 25.97,-26.4 30.93,-73.3 33.23,-115.8 3.8,-70.4 -2.02,-141.3 -8.22,-201.4 -7.72,-74.9 -18.47,-150.6 -28.87,-223.7 l -2.73,-19.1 c -7.44,-51.8 -15.15,-105.4 -17.43,-158.6 -2.36,-54.8 5.3,-117 24.09,-195.8 22,-92.2 57.58,-159.6 108.77,-205.9 30.19,-27.2 65.7,-47.4 105.55,-59.8 36.28,-11.2 73.09,-9.2 108.63,-7.3 11.26,0.7 22.55,1.3 33.87,1.5 22.37,0.5 45.88,-0.7 66.41,-11.4 18.76,-9.9 34.48,-25.6 48.68,-41.1 6.96,-7.6 13.73,-15.5 20.5,-23.3 22.5,-26.1 45.77,-53 76.41,-71.7 97.95,-59.9 215.58,-90.6 330.18,-90.6 82.92,0 164.26,16.1 235.4,48.9 156,72 332.23,225 315.52,419.2 -0.62,7.3 -1.38,14.6 -2.13,21.9 -2.14,20.7 -4.34,42.1 -3.45,62.9 0.86,20.2 5.97,40.4 10.91,60 1.78,7 3.55,14.1 5.15,21.1 10.93,48.2 13.51,89.4 8.11,129.8" style="fill:#211d1d;fill-opacity:1;fill-rule:nonzero;stroke:none" />
    <path id="path17" d="m 7934.48,7955.8 c -23.11,0 -41.85,-18.7 -41.85,-41.8 0,-23.1 18.74,-41.9 41.85,-41.9 23.11,0 41.85,18.8 41.85,41.9 0,23.1 -18.74,41.8 -41.85,41.8" style="fill:#211d1d;fill-opacity:1;fill-rule:nonzero;stroke:none" />
    <path id="path18" d="m 7850.92,7796.3 c -18.23,0 -33.01,-14.8 -33.01,-33 0,-18.3 14.78,-33 33.01,-33 18.23,0 33.01,14.7 33.01,33 0,18.2 -14.78,33 -33.01,33" style="fill:#211d1d;fill-opacity:1;fill-rule:nonzero;stroke:none" />
    <path id="path19" d="m 7731.21,7997 c -17.73,0 -32.11,-14.3 -32.11,-32.1 0,-17.7 14.38,-32.1 32.11,-32.1 17.74,0 32.11,14.4 32.11,32.1 0,17.8 -14.37,32.1 -32.11,32.1" style="fill:#211d1d;fill-opacity:1;fill-rule:nonzero;stroke:none" />
    <path id="path20" d="m 7371.13,7796.3 c 12.93,0 23.41,10.5 23.41,23.4 0,12.9 -10.48,23.4 -23.41,23.4 -12.92,0 -23.4,-10.5 -23.4,-23.4 0,-12.9 10.48,-23.4 23.4,-23.4" style="fill:#211d1d;fill-opacity:1;fill-rule:nonzero;stroke:none" />
    <path id="path21" d="m 7986.05,7997 c -8.86,0 -16.05,-7.1 -16.05,-16 0,-8.9 7.19,-16.1 16.05,-16.1 8.87,0 16.06,7.2 16.06,16.1 0,8.9 -7.19,16 -16.06,16" style="fill:#211d1d;fill-opacity:1;fill-rule:nonzero;stroke:none" />
    <path id="path22" d="m 8015.94,7605.6 c -11.09,0 -20.61,-6.2 -25.54,-15.3 -8.46,9.3 -20.58,15.3 -34.2,15.3 -25.53,0 -46.22,-20.6 -46.22,-46.2 0,-25.5 20.69,-46.2 46.22,-46.2 22.74,0 41.54,16.5 45.39,38.1 4.26,-2.4 9.11,-3.9 14.35,-3.9 16.09,0 29.13,13 29.13,29.1 0,16.1 -13.04,29.1 -29.13,29.1" style="fill:#211d1d;fill-opacity:1;fill-rule:nonzero;stroke:none" />
    <path id="path23" d="m 7543.21,8084.1 c -11.94,0 -21.61,-9.6 -21.61,-21.6 0,-11.9 9.67,-21.6 21.61,-21.6 11.94,0 21.62,9.7 21.62,21.6 0,12 -9.68,21.6 -21.62,21.6" style="fill:#211d1d;fill-opacity:1;fill-rule:nonzero;stroke:none" />
    <path id="path24" d="m 7417.24,7964.9 c 12.54,0 22.7,10.2 22.7,22.7 0,12.6 -10.16,22.7 -22.7,22.7 -12.54,0 -22.7,-10.1 -22.7,-22.7 0,-12.5 10.16,-22.7 22.7,-22.7" style="fill:#211d1d;fill-opacity:1;fill-rule:nonzero;stroke:none" />
    <path id="path25" d="m 7329.26,7872.1 c 11.56,0 20.92,9.4 20.92,21 0,11.5 -9.36,20.9 -20.92,20.9 -11.56,0 -20.93,-9.4 -20.93,-20.9 0,-11.6 9.37,-21 20.93,-21" style="fill:#211d1d;fill-opacity:1;fill-rule:nonzero;stroke:none" />
    <path id="path26" d="m 7841.96,8110.6 c -13.28,0 -24.05,-10.7 -24.05,-24 0,-13.3 10.77,-24.1 24.05,-24.1 13.28,0 24.05,10.8 24.05,24.1 0,13.3 -10.77,24 -24.05,24" style="fill:#211d1d;fill-opacity:1;fill-rule:nonzero;stroke:none" />
    <path id="path27" d="m 7830.48,7981 c -6.94,0 -12.57,-5.6 -12.57,-12.6 0,-6.9 5.63,-12.6 12.57,-12.6 6.95,0 12.58,5.7 12.58,12.6 0,7 -5.63,12.6 -12.58,12.6" style="fill:#211d1d;fill-opacity:1;fill-rule:nonzero;stroke:none" />
    <path id="path28" d="m 8083.55,7914 c -6.65,0 -12.05,-5.4 -12.05,-12.1 0,-6.6 5.4,-12 12.05,-12 6.65,0 12.05,5.4 12.05,12 0,6.7 -5.4,12.1 -12.05,12.1" style="fill:#211d1d;fill-opacity:1;fill-rule:nonzero;stroke:none" />
    <path id="path29" d="m 7428.59,7512.5 c -6.27,0 -11.35,-5 -11.35,-11.3 0,-6.3 5.08,-11.4 11.35,-11.4 6.27,0 11.35,5.1 11.35,11.4 0,6.3 -5.08,11.3 -11.35,11.3" style="fill:#211d1d;fill-opacity:1;fill-rule:nonzero;stroke:none" />
    <path id="path30" d="m 7346.56,7547.4 c -21.11,0 -38.23,-17.1 -38.23,-38.2 0,-21.2 17.12,-38.3 38.23,-38.3 21.12,0 38.23,17.1 38.23,38.3 0,21.1 -17.11,38.2 -38.23,38.2" style="fill:#211d1d;fill-opacity:1;fill-rule:nonzero;stroke:none" />
    <path id="path31" d="m 7333.61,7425.3 c -7.8,0 -14.12,-6.3 -14.12,-14.1 0,-7.8 6.32,-14.1 14.12,-14.1 7.8,0 14.12,6.3 14.12,14.1 0,7.8 -6.32,14.1 -14.12,14.1" style="fill:#211d1d;fill-opacity:1;fill-rule:nonzero;stroke:none" />
  </g>
</svg>
